# xmcd CD database file
#
# Track frame offsets:
#	150
#	43631
#	88513
#	141290
#
# Disc length: 2479 seconds
#
# Revision: 0
# Processed by: cddbd v1.5.2PL0 Copyright (c) Steve Scherf et al.
# Submitted via: CDex 1.51
#
DISCID=2e09ad04
DTITLE=Nucleus - Bracknell Sunshine 
DYEAR=1980
DGENRE=Jazz
TTITLE0=White City Blues
TTITLE1=Lady Bountiful
TTITLE2=Out of the long dark
TTITLE3=Something for Mr Jelly  Lord
EXTD=YEAR: 1980
EXTT0=
EXTT1=
EXTT2=
EXTT3=
PLAYORDER=
